<mxfile host="app.diagrams.net" agent="Mozilla/5.0 (Windows NT 10.0; Win64; x64) AppleWebKit/537.36 (KHTML, like Gecko) Chrome/136.0.0.0 Safari/537.36" version="27.1.3">
  <diagram name="Страница — 1" id="49l8CZxV3Xv4czewr5SG">
    <mxGraphModel dx="-2175" dy="1145" grid="1" gridSize="10" guides="1" tooltips="1" connect="1" arrows="1" fold="1" page="1" pageScale="1" pageWidth="827" pageHeight="1169" math="0" shadow="0">
      <root>
        <mxCell id="0" />
        <mxCell id="1" parent="0" />
        <mxCell id="uVcpbzpFfZDAmYkq3XsX-3" value="" style="edgeStyle=orthogonalEdgeStyle;rounded=0;orthogonalLoop=1;jettySize=auto;html=1;" parent="1" source="uVcpbzpFfZDAmYkq3XsX-1" target="uVcpbzpFfZDAmYkq3XsX-2" edge="1">
          <mxGeometry relative="1" as="geometry" />
        </mxCell>
        <mxCell id="uVcpbzpFfZDAmYkq3XsX-1" value="&lt;font style=&quot;background-color: light-dark(#ffffff, var(--ge-dark-color, #121212));&quot;&gt;Начало&lt;/font&gt;&lt;div&gt;&lt;span&gt;&lt;font&gt;&amp;nbsp;&lt;span&gt;&lt;span style=&quot;font-family: Consolas, &amp;quot;Courier New&amp;quot;, monospace; white-space: pre;&quot;&gt;read_data&lt;/span&gt;&lt;br&gt;&lt;/span&gt;&lt;/font&gt;&lt;/span&gt;&lt;/div&gt;" style="rounded=1;whiteSpace=wrap;html=1;arcSize=50;fontFamily=Consolas;fontSize=14;" parent="1" vertex="1">
          <mxGeometry x="3430" y="103.25" width="160" height="60" as="geometry" />
        </mxCell>
        <mxCell id="uVcpbzpFfZDAmYkq3XsX-5" style="edgeStyle=orthogonalEdgeStyle;rounded=0;orthogonalLoop=1;jettySize=auto;html=1;" parent="1" source="uVcpbzpFfZDAmYkq3XsX-2" target="uVcpbzpFfZDAmYkq3XsX-4" edge="1">
          <mxGeometry relative="1" as="geometry" />
        </mxCell>
        <mxCell id="uVcpbzpFfZDAmYkq3XsX-2" value="&amp;nbsp;Открыть файл" style="whiteSpace=wrap;html=1;fontSize=14;fontFamily=Consolas;rounded=1;arcSize=0;" parent="1" vertex="1">
          <mxGeometry x="3450" y="195" width="120" height="60" as="geometry" />
        </mxCell>
        <mxCell id="uVcpbzpFfZDAmYkq3XsX-7" value="" style="edgeStyle=orthogonalEdgeStyle;rounded=0;orthogonalLoop=1;jettySize=auto;html=1;" parent="1" source="uVcpbzpFfZDAmYkq3XsX-4" target="uVcpbzpFfZDAmYkq3XsX-6" edge="1">
          <mxGeometry relative="1" as="geometry" />
        </mxCell>
        <mxCell id="uVcpbzpFfZDAmYkq3XsX-32" style="edgeStyle=orthogonalEdgeStyle;rounded=0;orthogonalLoop=1;jettySize=auto;html=1;entryX=0.5;entryY=0;entryDx=0;entryDy=0;" parent="1" source="uVcpbzpFfZDAmYkq3XsX-4" target="uVcpbzpFfZDAmYkq3XsX-152" edge="1">
          <mxGeometry relative="1" as="geometry">
            <mxPoint x="3640" y="310" as="targetPoint" />
          </mxGeometry>
        </mxCell>
        <mxCell id="uVcpbzpFfZDAmYkq3XsX-4" value="&lt;div style=&quot;font-family: Consolas, &amp;quot;Courier New&amp;quot;, monospace; line-height: 19px; white-space: pre;&quot;&gt;&lt;div style=&quot;line-height: 19px;&quot;&gt;&lt;div style=&quot;line-height: 19px;&quot;&gt;&lt;font style=&quot;color: rgb(0, 0, 0);&quot;&gt;Файл открыт?&lt;/font&gt;&lt;/div&gt;&lt;/div&gt;&lt;/div&gt;" style="rhombus;whiteSpace=wrap;html=1;rounded=1;strokeColor=default;align=center;verticalAlign=middle;arcSize=0;fontFamily=Consolas;fontSize=14;fontColor=default;fillColor=default;" parent="1" vertex="1">
          <mxGeometry x="3438.5" y="280" width="143" height="60" as="geometry" />
        </mxCell>
        <mxCell id="uVcpbzpFfZDAmYkq3XsX-16" style="edgeStyle=orthogonalEdgeStyle;rounded=0;orthogonalLoop=1;jettySize=auto;html=1;entryX=0.5;entryY=0;entryDx=0;entryDy=0;" parent="1" source="uVcpbzpFfZDAmYkq3XsX-6" target="uVcpbzpFfZDAmYkq3XsX-10" edge="1">
          <mxGeometry relative="1" as="geometry" />
        </mxCell>
        <mxCell id="uVcpbzpFfZDAmYkq3XsX-6" value="&lt;div style=&quot;font-family: Consolas, &amp;quot;Courier New&amp;quot;, monospace; line-height: 19px; white-space: pre;&quot;&gt;&lt;div style=&quot;&quot;&gt;Инициализация &lt;/div&gt;&lt;div style=&quot;&quot;&gt;переменных&lt;/div&gt;&lt;/div&gt;" style="whiteSpace=wrap;html=1;fontSize=14;fontFamily=Consolas;rounded=1;arcSize=0;" parent="1" vertex="1">
          <mxGeometry x="3417.5" y="367.5" width="185" height="72.5" as="geometry" />
        </mxCell>
        <mxCell id="uVcpbzpFfZDAmYkq3XsX-8" value="Да" style="text;html=1;align=center;verticalAlign=middle;resizable=0;points=[];autosize=1;strokeColor=none;fillColor=none;" parent="1" vertex="1">
          <mxGeometry x="3510" y="328" width="40" height="30" as="geometry" />
        </mxCell>
        <mxCell id="uVcpbzpFfZDAmYkq3XsX-9" value="Нет" style="text;html=1;align=center;verticalAlign=middle;resizable=0;points=[];autosize=1;strokeColor=none;fillColor=none;" parent="1" vertex="1">
          <mxGeometry x="3581.5" y="275" width="40" height="30" as="geometry" />
        </mxCell>
        <mxCell id="uVcpbzpFfZDAmYkq3XsX-169" style="edgeStyle=orthogonalEdgeStyle;rounded=0;orthogonalLoop=1;jettySize=auto;html=1;" parent="1" source="uVcpbzpFfZDAmYkq3XsX-10" target="uVcpbzpFfZDAmYkq3XsX-171" edge="1">
          <mxGeometry relative="1" as="geometry">
            <mxPoint x="3360" y="570" as="targetPoint" />
          </mxGeometry>
        </mxCell>
        <mxCell id="uVcpbzpFfZDAmYkq3XsX-176" style="edgeStyle=orthogonalEdgeStyle;rounded=0;orthogonalLoop=1;jettySize=auto;html=1;" parent="1" source="uVcpbzpFfZDAmYkq3XsX-10" edge="1">
          <mxGeometry relative="1" as="geometry">
            <mxPoint x="3510" y="660" as="targetPoint" />
            <Array as="points">
              <mxPoint x="3390" y="512" />
              <mxPoint x="3390" y="660" />
              <mxPoint x="3510" y="660" />
            </Array>
          </mxGeometry>
        </mxCell>
        <mxCell id="uVcpbzpFfZDAmYkq3XsX-10" value="&lt;div style=&quot;font-family: Consolas, &amp;quot;Courier New&amp;quot;, monospace; line-height: 19px; white-space: pre;&quot;&gt;&lt;div style=&quot;line-height: 19px;&quot;&gt;&lt;div style=&quot;line-height: 19px;&quot;&gt;Строка пуста &lt;/div&gt;&lt;div style=&quot;line-height: 19px;&quot;&gt;или MAX_PLANES&lt;/div&gt;&lt;/div&gt;&lt;/div&gt;" style="rhombus;whiteSpace=wrap;html=1;rounded=1;strokeColor=default;align=center;verticalAlign=middle;arcSize=0;fontFamily=Consolas;fontSize=14;fontColor=default;fillColor=default;" parent="1" vertex="1">
          <mxGeometry x="3434.25" y="474" width="151.5" height="76" as="geometry" />
        </mxCell>
        <mxCell id="uVcpbzpFfZDAmYkq3XsX-19" style="edgeStyle=orthogonalEdgeStyle;rounded=0;orthogonalLoop=1;jettySize=auto;html=1;" parent="1" source="uVcpbzpFfZDAmYkq3XsX-22" target="uVcpbzpFfZDAmYkq3XsX-11" edge="1">
          <mxGeometry relative="1" as="geometry" />
        </mxCell>
        <mxCell id="uVcpbzpFfZDAmYkq3XsX-37" style="edgeStyle=orthogonalEdgeStyle;rounded=0;orthogonalLoop=1;jettySize=auto;html=1;" parent="1" target="uVcpbzpFfZDAmYkq3XsX-18" edge="1">
          <mxGeometry relative="1" as="geometry">
            <mxPoint x="3936.27" y="208.75" as="sourcePoint" />
          </mxGeometry>
        </mxCell>
        <mxCell id="uVcpbzpFfZDAmYkq3XsX-143" value="" style="edgeStyle=orthogonalEdgeStyle;rounded=0;orthogonalLoop=1;jettySize=auto;html=1;" parent="1" source="uVcpbzpFfZDAmYkq3XsX-11" target="uVcpbzpFfZDAmYkq3XsX-142" edge="1">
          <mxGeometry relative="1" as="geometry" />
        </mxCell>
        <mxCell id="uVcpbzpFfZDAmYkq3XsX-11" value="&lt;div style=&quot;font-family: Consolas, &amp;quot;Courier New&amp;quot;, monospace; line-height: 19px; white-space: pre;&quot;&gt;&lt;div style=&quot;&quot;&gt;Инициализация &lt;/div&gt;&lt;div style=&quot;&quot;&gt;переменных&lt;/div&gt;&lt;/div&gt;" style="whiteSpace=wrap;html=1;fontSize=14;fontFamily=Consolas;rounded=1;arcSize=0;" parent="1" vertex="1">
          <mxGeometry x="3430" y="734.75" width="160" height="68.5" as="geometry" />
        </mxCell>
        <mxCell id="uVcpbzpFfZDAmYkq3XsX-30" style="edgeStyle=orthogonalEdgeStyle;rounded=0;orthogonalLoop=1;jettySize=auto;html=1;" parent="1" source="uVcpbzpFfZDAmYkq3XsX-181" edge="1">
          <mxGeometry relative="1" as="geometry">
            <mxPoint x="4600" y="305" as="targetPoint" />
            <mxPoint x="4675.25" y="159.25" as="sourcePoint" />
            <Array as="points">
              <mxPoint x="4730" y="160" />
              <mxPoint x="4730" y="305" />
            </Array>
          </mxGeometry>
        </mxCell>
        <mxCell id="uVcpbzpFfZDAmYkq3XsX-35" style="edgeStyle=orthogonalEdgeStyle;rounded=0;orthogonalLoop=1;jettySize=auto;html=1;" parent="1" source="uVcpbzpFfZDAmYkq3XsX-18" edge="1">
          <mxGeometry relative="1" as="geometry">
            <mxPoint x="3936.27" y="308.75" as="targetPoint" />
          </mxGeometry>
        </mxCell>
        <mxCell id="QS-16CUmfVsmQrZvx4Mh-2" style="edgeStyle=orthogonalEdgeStyle;rounded=0;orthogonalLoop=1;jettySize=auto;html=1;" parent="1" source="uVcpbzpFfZDAmYkq3XsX-18" edge="1">
          <mxGeometry relative="1" as="geometry">
            <mxPoint x="3936.27" y="390.0714343843006" as="targetPoint" />
            <Array as="points">
              <mxPoint x="4041.77" y="247.5" />
              <mxPoint x="4041.77" y="390.5" />
            </Array>
          </mxGeometry>
        </mxCell>
        <mxCell id="uVcpbzpFfZDAmYkq3XsX-18" value="&lt;div style=&quot;font-family: Consolas, &amp;quot;Courier New&amp;quot;, monospace; line-height: 19px; white-space: pre;&quot;&gt;&lt;div style=&quot;line-height: 19px;&quot;&gt;&lt;div style=&quot;line-height: 19px;&quot;&gt;&lt;div style=&quot;line-height: 19px;&quot;&gt;&lt;span style=&quot;background-color: transparent; color: light-dark(rgb(0, 0, 0), rgb(237, 237, 237));&quot;&gt;Все символы &lt;/span&gt;&lt;/div&gt;&lt;div style=&quot;line-height: 19px;&quot;&gt;&lt;span style=&quot;background-color: transparent; color: light-dark(rgb(0, 0, 0), rgb(237, 237, 237));&quot;&gt;строки - пробелы&lt;/span&gt;&lt;/div&gt;&lt;/div&gt;&lt;/div&gt;&lt;/div&gt;" style="rhombus;whiteSpace=wrap;html=1;rounded=1;strokeColor=default;align=center;verticalAlign=middle;arcSize=0;fontFamily=Consolas;fontSize=14;fontColor=default;fillColor=default;" parent="1" vertex="1">
          <mxGeometry x="3860.52" y="209" width="151.5" height="76" as="geometry" />
        </mxCell>
        <mxCell id="uVcpbzpFfZDAmYkq3XsX-22" value="Увеличиваем номер строки" style="whiteSpace=wrap;html=1;fontSize=14;fontFamily=Consolas;rounded=1;arcSize=0;" parent="1" vertex="1">
          <mxGeometry x="3446.25" y="666" width="127.5" height="48.5" as="geometry" />
        </mxCell>
        <mxCell id="uVcpbzpFfZDAmYkq3XsX-24" value="Нет" style="text;html=1;align=center;verticalAlign=middle;resizable=0;points=[];autosize=1;strokeColor=none;fillColor=none;" parent="1" vertex="1">
          <mxGeometry x="3390" y="480" width="40" height="30" as="geometry" />
        </mxCell>
        <mxCell id="uVcpbzpFfZDAmYkq3XsX-25" value="Да" style="text;html=1;align=center;verticalAlign=middle;resizable=0;points=[];autosize=1;strokeColor=none;fillColor=none;" parent="1" vertex="1">
          <mxGeometry x="3520" y="536.5" width="40" height="30" as="geometry" />
        </mxCell>
        <mxCell id="uVcpbzpFfZDAmYkq3XsX-26" value="Нет" style="text;html=1;align=center;verticalAlign=middle;resizable=0;points=[];autosize=1;strokeColor=none;fillColor=none;" parent="1" vertex="1">
          <mxGeometry x="4001.77" y="219.5" width="40" height="30" as="geometry" />
        </mxCell>
        <mxCell id="uVcpbzpFfZDAmYkq3XsX-27" value="Да" style="text;html=1;align=center;verticalAlign=middle;resizable=0;points=[];autosize=1;strokeColor=none;fillColor=none;" parent="1" vertex="1">
          <mxGeometry x="3946.27" y="278.75" width="40" height="30" as="geometry" />
        </mxCell>
        <mxCell id="uVcpbzpFfZDAmYkq3XsX-157" style="edgeStyle=orthogonalEdgeStyle;rounded=0;orthogonalLoop=1;jettySize=auto;html=1;" parent="1" source="uVcpbzpFfZDAmYkq3XsX-39" target="uVcpbzpFfZDAmYkq3XsX-48" edge="1">
          <mxGeometry relative="1" as="geometry" />
        </mxCell>
        <mxCell id="uVcpbzpFfZDAmYkq3XsX-39" value="&lt;div style=&quot;font-family: Consolas, &amp;quot;Courier New&amp;quot;, monospace; line-height: 19px; white-space: pre;&quot;&gt;&lt;div style=&quot;&quot;&gt;Добавляем ошибку &lt;/div&gt;&lt;div style=&quot;&quot;&gt;&quot;Пустая строка&quot;&lt;/div&gt;&lt;/div&gt;" style="whiteSpace=wrap;html=1;fontSize=14;fontFamily=Consolas;rounded=1;arcSize=0;" parent="1" vertex="1">
          <mxGeometry x="3857.77" y="308.75" width="160" height="70" as="geometry" />
        </mxCell>
        <mxCell id="QS-16CUmfVsmQrZvx4Mh-39" style="edgeStyle=orthogonalEdgeStyle;rounded=0;orthogonalLoop=1;jettySize=auto;html=1;" parent="1" source="uVcpbzpFfZDAmYkq3XsX-48" target="QS-16CUmfVsmQrZvx4Mh-37" edge="1">
          <mxGeometry relative="1" as="geometry" />
        </mxCell>
        <mxCell id="uVcpbzpFfZDAmYkq3XsX-48" value="&lt;span style=&quot;font-family: Consolas; font-size: 14px;&quot;&gt;Запятых &amp;lt; 3&lt;/span&gt;" style="rhombus;whiteSpace=wrap;html=1;" parent="1" vertex="1">
          <mxGeometry x="3884.48" y="407.5" width="108.5" height="70" as="geometry" />
        </mxCell>
        <mxCell id="uVcpbzpFfZDAmYkq3XsX-142" value="1" style="ellipse;whiteSpace=wrap;html=1;fontSize=14;fontFamily=Consolas;rounded=1;arcSize=0;" parent="1" vertex="1">
          <mxGeometry x="3490" y="830" width="40" height="35" as="geometry" />
        </mxCell>
        <mxCell id="uVcpbzpFfZDAmYkq3XsX-146" style="edgeStyle=orthogonalEdgeStyle;rounded=0;orthogonalLoop=1;jettySize=auto;html=1;entryX=0.5;entryY=0;entryDx=0;entryDy=0;" parent="1" source="uVcpbzpFfZDAmYkq3XsX-144" target="uVcpbzpFfZDAmYkq3XsX-18" edge="1">
          <mxGeometry relative="1" as="geometry" />
        </mxCell>
        <mxCell id="uVcpbzpFfZDAmYkq3XsX-144" value="1" style="ellipse;whiteSpace=wrap;html=1;fontSize=14;fontFamily=Consolas;rounded=1;arcSize=0;" parent="1" vertex="1">
          <mxGeometry x="3916.27" y="159.5" width="40" height="35" as="geometry" />
        </mxCell>
        <mxCell id="uVcpbzpFfZDAmYkq3XsX-190" style="edgeStyle=orthogonalEdgeStyle;rounded=0;orthogonalLoop=1;jettySize=auto;html=1;" parent="1" source="uVcpbzpFfZDAmYkq3XsX-150" target="uVcpbzpFfZDAmYkq3XsX-181" edge="1">
          <mxGeometry relative="1" as="geometry" />
        </mxCell>
        <mxCell id="uVcpbzpFfZDAmYkq3XsX-150" value="3" style="ellipse;whiteSpace=wrap;html=1;fontSize=14;fontFamily=Consolas;rounded=1;arcSize=0;" parent="1" vertex="1">
          <mxGeometry x="4580" y="80" width="40" height="35" as="geometry" />
        </mxCell>
        <mxCell id="uVcpbzpFfZDAmYkq3XsX-156" style="edgeStyle=orthogonalEdgeStyle;rounded=0;orthogonalLoop=1;jettySize=auto;html=1;" parent="1" source="uVcpbzpFfZDAmYkq3XsX-152" target="uVcpbzpFfZDAmYkq3XsX-166" edge="1">
          <mxGeometry relative="1" as="geometry">
            <mxPoint x="3730" y="440" as="targetPoint" />
          </mxGeometry>
        </mxCell>
        <mxCell id="uVcpbzpFfZDAmYkq3XsX-152" value="&lt;div style=&quot;font-family: Consolas, &amp;quot;Courier New&amp;quot;, monospace; line-height: 19px; white-space: pre;&quot;&gt;&lt;div style=&quot;&quot;&gt;Добавляем ошибку &lt;/div&gt;&lt;div style=&quot;&quot;&gt;&quot;Не существует файла&quot;&lt;/div&gt;&lt;/div&gt;" style="whiteSpace=wrap;html=1;fontSize=14;fontFamily=Consolas;rounded=1;arcSize=0;" parent="1" vertex="1">
          <mxGeometry x="3650" y="340" width="160" height="70" as="geometry" />
        </mxCell>
        <mxCell id="uVcpbzpFfZDAmYkq3XsX-159" value="Нет" style="text;html=1;align=center;verticalAlign=middle;resizable=0;points=[];autosize=1;strokeColor=none;fillColor=none;" parent="1" vertex="1">
          <mxGeometry x="3992.98" y="412" width="40" height="30" as="geometry" />
        </mxCell>
        <mxCell id="uVcpbzpFfZDAmYkq3XsX-160" value="Да" style="text;html=1;align=center;verticalAlign=middle;resizable=0;points=[];autosize=1;strokeColor=none;fillColor=none;" parent="1" vertex="1">
          <mxGeometry x="3946.27" y="466" width="40" height="30" as="geometry" />
        </mxCell>
        <mxCell id="uVcpbzpFfZDAmYkq3XsX-166" value="return -1" style="whiteSpace=wrap;html=1;fontSize=14;fontFamily=Consolas;rounded=1;arcSize=50;" parent="1" vertex="1">
          <mxGeometry x="3670" y="440" width="120" height="60" as="geometry" />
        </mxCell>
        <mxCell id="uVcpbzpFfZDAmYkq3XsX-175" style="edgeStyle=orthogonalEdgeStyle;rounded=0;orthogonalLoop=1;jettySize=auto;html=1;" parent="1" source="uVcpbzpFfZDAmYkq3XsX-171" target="uVcpbzpFfZDAmYkq3XsX-22" edge="1">
          <mxGeometry relative="1" as="geometry" />
        </mxCell>
        <mxCell id="uVcpbzpFfZDAmYkq3XsX-171" value="&lt;div style=&quot;font-family: Consolas, &amp;quot;Courier New&amp;quot;, monospace; line-height: 19px; white-space: pre;&quot;&gt;&lt;div style=&quot;&quot;&gt;Добавляем ошибку &lt;/div&gt;&lt;div style=&quot;&quot;&gt;&quot;&lt;span&gt;&lt;font style=&quot;color: rgb(0, 0, 0);&quot;&gt;Пустая строка&lt;/font&gt;&lt;/span&gt;&lt;span style=&quot;background-color: transparent; color: light-dark(rgb(0, 0, 0), rgb(255, 255, 255));&quot;&gt;&quot;&lt;/span&gt;&lt;br&gt;&lt;/div&gt;&lt;/div&gt;" style="whiteSpace=wrap;html=1;fontSize=14;fontFamily=Consolas;rounded=1;arcSize=0;" parent="1" vertex="1">
          <mxGeometry x="3430" y="572.5" width="160" height="70" as="geometry" />
        </mxCell>
        <mxCell id="uVcpbzpFfZDAmYkq3XsX-185" style="edgeStyle=orthogonalEdgeStyle;rounded=0;orthogonalLoop=1;jettySize=auto;html=1;" parent="1" source="uVcpbzpFfZDAmYkq3XsX-181" target="uVcpbzpFfZDAmYkq3XsX-184" edge="1">
          <mxGeometry relative="1" as="geometry" />
        </mxCell>
        <mxCell id="uVcpbzpFfZDAmYkq3XsX-181" value="&lt;div style=&quot;font-family: Consolas, &amp;quot;Courier New&amp;quot;, monospace; line-height: 19px; white-space: pre;&quot;&gt;&lt;div style=&quot;line-height: 19px;&quot;&gt;&lt;div style=&quot;line-height: 19px;&quot;&gt;&lt;div style=&quot;line-height: 19px;&quot;&gt;Поле модели пусто&lt;/div&gt;&lt;/div&gt;&lt;/div&gt;&lt;/div&gt;" style="rhombus;whiteSpace=wrap;html=1;rounded=1;strokeColor=default;align=center;verticalAlign=middle;arcSize=0;fontFamily=Consolas;fontSize=14;fontColor=default;fillColor=default;" parent="1" vertex="1">
          <mxGeometry x="4524.25" y="123.25" width="151.5" height="76" as="geometry" />
        </mxCell>
        <mxCell id="uVcpbzpFfZDAmYkq3XsX-182" value="Да" style="text;html=1;align=center;verticalAlign=middle;resizable=0;points=[];autosize=1;strokeColor=none;fillColor=none;" parent="1" vertex="1">
          <mxGeometry x="4620" y="189.5" width="40" height="30" as="geometry" />
        </mxCell>
        <mxCell id="uVcpbzpFfZDAmYkq3XsX-183" value="Нет" style="text;html=1;align=center;verticalAlign=middle;resizable=0;points=[];autosize=1;strokeColor=none;fillColor=none;" parent="1" vertex="1">
          <mxGeometry x="4681.5" y="129.5" width="40" height="30" as="geometry" />
        </mxCell>
        <mxCell id="uVcpbzpFfZDAmYkq3XsX-188" style="edgeStyle=orthogonalEdgeStyle;rounded=0;orthogonalLoop=1;jettySize=auto;html=1;" parent="1" source="uVcpbzpFfZDAmYkq3XsX-184" target="uVcpbzpFfZDAmYkq3XsX-186" edge="1">
          <mxGeometry relative="1" as="geometry" />
        </mxCell>
        <mxCell id="uVcpbzpFfZDAmYkq3XsX-184" value="&lt;div style=&quot;font-family: Consolas, &amp;quot;Courier New&amp;quot;, monospace; line-height: 19px; white-space: pre;&quot;&gt;&lt;div style=&quot;&quot;&gt;Добавляем ошибку &lt;/div&gt;&lt;div style=&quot;&quot;&gt;&quot;Пустое поле модели&quot;&lt;/div&gt;&lt;/div&gt;" style="whiteSpace=wrap;html=1;fontSize=14;fontFamily=Consolas;rounded=1;arcSize=0;" parent="1" vertex="1">
          <mxGeometry x="4520" y="219.5" width="160" height="70" as="geometry" />
        </mxCell>
        <mxCell id="uVcpbzpFfZDAmYkq3XsX-189" style="edgeStyle=orthogonalEdgeStyle;rounded=0;orthogonalLoop=1;jettySize=auto;html=1;" parent="1" source="uVcpbzpFfZDAmYkq3XsX-186" target="uVcpbzpFfZDAmYkq3XsX-187" edge="1">
          <mxGeometry relative="1" as="geometry" />
        </mxCell>
        <mxCell id="uVcpbzpFfZDAmYkq3XsX-186" value="&lt;div style=&quot;font-family: Consolas, &amp;quot;Courier New&amp;quot;, monospace; line-height: 19px; white-space: pre;&quot;&gt;&lt;div style=&quot;line-height: 19px;&quot;&gt;&lt;div style=&quot;line-height: 19px;&quot;&gt;&lt;div style=&quot;line-height: 19px;&quot;&gt;Есть лишние данные&lt;/div&gt;&lt;/div&gt;&lt;/div&gt;&lt;/div&gt;" style="rhombus;whiteSpace=wrap;html=1;rounded=1;strokeColor=default;align=center;verticalAlign=middle;arcSize=0;fontFamily=Consolas;fontSize=14;fontColor=default;fillColor=default;" parent="1" vertex="1">
          <mxGeometry x="4524.25" y="310.5" width="151.5" height="76" as="geometry" />
        </mxCell>
        <mxCell id="uVcpbzpFfZDAmYkq3XsX-192" style="edgeStyle=orthogonalEdgeStyle;rounded=0;orthogonalLoop=1;jettySize=auto;html=1;" parent="1" source="uVcpbzpFfZDAmYkq3XsX-199" target="uVcpbzpFfZDAmYkq3XsX-191" edge="1">
          <mxGeometry relative="1" as="geometry" />
        </mxCell>
        <mxCell id="uVcpbzpFfZDAmYkq3XsX-187" value="&lt;div style=&quot;font-family: Consolas, &amp;quot;Courier New&amp;quot;, monospace; line-height: 19px; white-space: pre;&quot;&gt;&lt;div style=&quot;&quot;&gt;Добавляем ошибку &lt;/div&gt;&lt;div style=&quot;&quot;&gt;&quot;Лишние данные в строке&quot;&lt;/div&gt;&lt;/div&gt;" style="whiteSpace=wrap;html=1;fontSize=14;fontFamily=Consolas;rounded=1;arcSize=0;" parent="1" vertex="1">
          <mxGeometry x="4520" y="410" width="160" height="70" as="geometry" />
        </mxCell>
        <mxCell id="uVcpbzpFfZDAmYkq3XsX-202" value="" style="edgeStyle=orthogonalEdgeStyle;rounded=0;orthogonalLoop=1;jettySize=auto;html=1;" parent="1" source="uVcpbzpFfZDAmYkq3XsX-191" target="uVcpbzpFfZDAmYkq3XsX-201" edge="1">
          <mxGeometry relative="1" as="geometry" />
        </mxCell>
        <mxCell id="uVcpbzpFfZDAmYkq3XsX-204" value="" style="edgeStyle=orthogonalEdgeStyle;rounded=0;orthogonalLoop=1;jettySize=auto;html=1;" parent="1" source="uVcpbzpFfZDAmYkq3XsX-191" target="uVcpbzpFfZDAmYkq3XsX-203" edge="1">
          <mxGeometry relative="1" as="geometry" />
        </mxCell>
        <mxCell id="uVcpbzpFfZDAmYkq3XsX-191" value="&lt;div style=&quot;font-family: Consolas, &amp;quot;Courier New&amp;quot;, monospace; line-height: 19px; white-space: pre;&quot;&gt;&lt;div style=&quot;line-height: 19px;&quot;&gt;&lt;div style=&quot;line-height: 19px;&quot;&gt;&lt;div style=&quot;line-height: 19px;&quot;&gt;Есть хотя бы &lt;/div&gt;&lt;div style=&quot;line-height: 19px;&quot;&gt;одна ошибка&lt;/div&gt;&lt;/div&gt;&lt;/div&gt;&lt;/div&gt;" style="rhombus;whiteSpace=wrap;html=1;rounded=1;strokeColor=default;align=center;verticalAlign=middle;arcSize=0;fontFamily=Consolas;fontSize=14;fontColor=default;fillColor=default;" parent="1" vertex="1">
          <mxGeometry x="4524.25" y="585.5" width="151.5" height="76" as="geometry" />
        </mxCell>
        <mxCell id="uVcpbzpFfZDAmYkq3XsX-195" value="Да" style="text;html=1;align=center;verticalAlign=middle;resizable=0;points=[];autosize=1;strokeColor=none;fillColor=none;" parent="1" vertex="1">
          <mxGeometry x="4610" y="378" width="40" height="30" as="geometry" />
        </mxCell>
        <mxCell id="uVcpbzpFfZDAmYkq3XsX-196" value="Нет" style="text;html=1;align=center;verticalAlign=middle;resizable=0;points=[];autosize=1;strokeColor=none;fillColor=none;" parent="1" vertex="1">
          <mxGeometry x="4671.5" y="318" width="40" height="30" as="geometry" />
        </mxCell>
        <mxCell id="uVcpbzpFfZDAmYkq3XsX-197" value="Да" style="text;html=1;align=center;verticalAlign=middle;resizable=0;points=[];autosize=1;strokeColor=none;fillColor=none;" parent="1" vertex="1">
          <mxGeometry x="4620" y="650" width="40" height="30" as="geometry" />
        </mxCell>
        <mxCell id="uVcpbzpFfZDAmYkq3XsX-198" value="Нет" style="text;html=1;align=center;verticalAlign=middle;resizable=0;points=[];autosize=1;strokeColor=none;fillColor=none;" parent="1" vertex="1">
          <mxGeometry x="4671.5" y="585" width="40" height="30" as="geometry" />
        </mxCell>
        <mxCell id="uVcpbzpFfZDAmYkq3XsX-200" value="" style="edgeStyle=orthogonalEdgeStyle;rounded=0;orthogonalLoop=1;jettySize=auto;html=1;" parent="1" source="uVcpbzpFfZDAmYkq3XsX-187" target="uVcpbzpFfZDAmYkq3XsX-199" edge="1">
          <mxGeometry relative="1" as="geometry">
            <mxPoint x="4600" y="480" as="sourcePoint" />
            <mxPoint x="4600" y="560" as="targetPoint" />
          </mxGeometry>
        </mxCell>
        <mxCell id="uVcpbzpFfZDAmYkq3XsX-199" value="&lt;div style=&quot;font-family: Consolas, &amp;quot;Courier New&amp;quot;, monospace; line-height: 19px; white-space: pre;&quot;&gt;&lt;div style=&quot;&quot;&gt;Закрываем файл&lt;/div&gt;&lt;/div&gt;" style="whiteSpace=wrap;html=1;fontSize=14;fontFamily=Consolas;rounded=1;arcSize=0;" parent="1" vertex="1">
          <mxGeometry x="4520" y="510" width="160" height="50" as="geometry" />
        </mxCell>
        <mxCell id="uVcpbzpFfZDAmYkq3XsX-201" value="return -7" style="whiteSpace=wrap;html=1;fontSize=14;fontFamily=Consolas;rounded=1;arcSize=50;" parent="1" vertex="1">
          <mxGeometry x="4540" y="690" width="120" height="60" as="geometry" />
        </mxCell>
        <mxCell id="uVcpbzpFfZDAmYkq3XsX-203" value="return 0" style="whiteSpace=wrap;html=1;fontSize=14;fontFamily=Consolas;rounded=1;arcSize=50;" parent="1" vertex="1">
          <mxGeometry x="4700" y="690" width="120" height="60" as="geometry" />
        </mxCell>
        <mxCell id="uVcpbzpFfZDAmYkq3XsX-205" style="edgeStyle=orthogonalEdgeStyle;rounded=0;orthogonalLoop=1;jettySize=auto;html=1;" parent="1" source="uVcpbzpFfZDAmYkq3XsX-186" edge="1">
          <mxGeometry relative="1" as="geometry">
            <mxPoint x="4600" y="492.96000000000004" as="targetPoint" />
            <mxPoint x="4673" y="347.96000000000004" as="sourcePoint" />
            <Array as="points">
              <mxPoint x="4730" y="348" />
              <mxPoint x="4730" y="493" />
            </Array>
          </mxGeometry>
        </mxCell>
        <mxCell id="QS-16CUmfVsmQrZvx4Mh-7" style="edgeStyle=orthogonalEdgeStyle;rounded=0;orthogonalLoop=1;jettySize=auto;html=1;" parent="1" source="uVcpbzpFfZDAmYkq3XsX-48" edge="1">
          <mxGeometry relative="1" as="geometry">
            <mxPoint x="3938.77" y="585.5" as="targetPoint" />
            <mxPoint x="4002.98" y="442.5" as="sourcePoint" />
            <Array as="points">
              <mxPoint x="4041.77" y="442.5" />
              <mxPoint x="4041.77" y="585.5" />
            </Array>
          </mxGeometry>
        </mxCell>
        <mxCell id="QS-16CUmfVsmQrZvx4Mh-33" style="edgeStyle=orthogonalEdgeStyle;rounded=0;orthogonalLoop=1;jettySize=auto;html=1;" parent="1" source="QS-16CUmfVsmQrZvx4Mh-27" target="QS-16CUmfVsmQrZvx4Mh-28" edge="1">
          <mxGeometry relative="1" as="geometry" />
        </mxCell>
        <mxCell id="QS-16CUmfVsmQrZvx4Mh-27" value="&lt;div style=&quot;font-family: Consolas, &amp;quot;Courier New&amp;quot;, monospace; line-height: 19px; white-space: pre;&quot;&gt;&lt;div style=&quot;&quot;&gt;&lt;div style=&quot;line-height: 19px;&quot;&gt;&lt;span&gt;&lt;font style=&quot;color: rgb(0, 0, 0);&quot;&gt;Для каждого поля: &lt;/font&gt;&lt;/span&gt;&lt;/div&gt;&lt;div style=&quot;line-height: 19px;&quot;&gt;&lt;span&gt;&lt;font style=&quot;color: rgb(0, 0, 0);&quot;&gt;- Чтение во временный буфер &lt;/font&gt;&lt;/span&gt;&lt;/div&gt;&lt;div style=&quot;line-height: 19px;&quot;&gt;&lt;div style=&quot;line-height: 19px;&quot;&gt;&lt;font style=&quot;color: rgb(0, 0, 0);&quot;&gt;- Пропуск пробелов и запятых &lt;/font&gt;&lt;span style=&quot;color: light-dark(rgb(0, 0, 0), rgb(237, 237, 237)); background-color: transparent;&quot;&gt; &lt;/span&gt;&lt;/div&gt;&lt;div style=&quot;line-height: 19px;&quot;&gt;&lt;span style=&quot;background-color: transparent; color: light-dark(rgb(0, 0, 0), rgb(255, 255, 255));&quot;&gt;&lt;font style=&quot;color: rgb(0, 0, 0);&quot;&gt;- Проверка длины &lt;/font&gt;&lt;/span&gt;&lt;span style=&quot;background-color: transparent; color: light-dark(rgb(0, 0, 0), rgb(237, 237, 237));&quot;&gt;(если &lt;/span&gt;&lt;span style=&quot;background-color: transparent; color: light-dark(rgb(0, 0, 0), rgb(237, 237, 237));&quot;&gt;непра&lt;/span&gt;&lt;/div&gt;&lt;div style=&quot;line-height: 19px;&quot;&gt;&lt;span style=&quot;background-color: transparent; color: light-dark(rgb(0, 0, 0), rgb(237, 237, 237));&quot;&gt;вильная &lt;/span&gt;&lt;span style=&quot;background-color: transparent; color: light-dark(rgb(0, 0, 0), rgb(237, 237, 237));&quot;&gt;длина &lt;/span&gt;&lt;span style=&quot;background-color: transparent; color: light-dark(rgb(0, 0, 0), rgb(237, 237, 237));&quot;&gt;добавляем &lt;/span&gt;&lt;span style=&quot;background-color: transparent; color: light-dark(rgb(0, 0, 0), rgb(237, 237, 237));&quot;&gt;ошибку)&lt;/span&gt;&lt;/div&gt;&lt;/div&gt;&lt;div style=&quot;line-height: 19px;&quot;&gt;&lt;span style=&quot;color: light-dark(rgb(0, 0, 0), rgb(237, 237, 237)); background-color: transparent;&quot;&gt;- Копирование в структуру&lt;/span&gt;&lt;/div&gt;&lt;/div&gt;&lt;/div&gt;" style="whiteSpace=wrap;html=1;fontSize=14;fontFamily=Consolas;rounded=1;arcSize=0;" parent="1" vertex="1">
          <mxGeometry x="3828.17" y="615" width="221.14" height="105.5" as="geometry" />
        </mxCell>
        <mxCell id="QS-16CUmfVsmQrZvx4Mh-41" style="edgeStyle=orthogonalEdgeStyle;rounded=0;orthogonalLoop=1;jettySize=auto;html=1;" parent="1" source="QS-16CUmfVsmQrZvx4Mh-28" target="QS-16CUmfVsmQrZvx4Mh-40" edge="1">
          <mxGeometry relative="1" as="geometry" />
        </mxCell>
        <mxCell id="QS-16CUmfVsmQrZvx4Mh-28" value="&lt;div style=&quot;font-family: Consolas, &amp;quot;Courier New&amp;quot;, monospace; white-space: pre;&quot;&gt;&lt;div&gt;&lt;font style=&quot;color: rgb(0, 0, 0);&quot;&gt;purify(p.time);&lt;/font&gt;&lt;/div&gt;&lt;div&gt;&lt;font style=&quot;color: rgb(0, 0, 0);&quot;&gt;purify(p.model);&lt;/font&gt;&lt;/div&gt;&lt;div&gt;&lt;font style=&quot;color: rgb(0, 0, 0);&quot;&gt;purify(p.bort);&lt;/font&gt;&lt;/div&gt;&lt;div&gt;&lt;font style=&quot;color: rgb(0, 0, 0);&quot;&gt;purify(p.airport);&lt;/font&gt;&lt;/div&gt;&lt;/div&gt;" style="shape=process;whiteSpace=wrap;html=1;backgroundOutline=1;fontSize=14;fontFamily=Consolas;rounded=1;arcSize=0;" parent="1" vertex="1">
          <mxGeometry x="3840" y="741" width="197.48" height="70" as="geometry" />
        </mxCell>
        <mxCell id="QS-16CUmfVsmQrZvx4Mh-38" style="edgeStyle=orthogonalEdgeStyle;rounded=0;orthogonalLoop=1;jettySize=auto;html=1;" parent="1" source="QS-16CUmfVsmQrZvx4Mh-37" target="QS-16CUmfVsmQrZvx4Mh-27" edge="1">
          <mxGeometry relative="1" as="geometry" />
        </mxCell>
        <mxCell id="QS-16CUmfVsmQrZvx4Mh-37" value="&lt;div style=&quot;font-family: Consolas, &amp;quot;Courier New&amp;quot;, monospace; line-height: 19px; white-space: pre;&quot;&gt;&lt;div style=&quot;&quot;&gt;Добавляем ошибку &lt;/div&gt;&lt;div style=&quot;&quot;&gt;&quot;Неправильная &lt;/div&gt;&lt;div style=&quot;&quot;&gt;структура строки&lt;span style=&quot;background-color: transparent; color: light-dark(rgb(0, 0, 0), rgb(255, 255, 255));&quot;&gt;&quot;&lt;/span&gt;&lt;/div&gt;&lt;/div&gt;" style="whiteSpace=wrap;html=1;fontSize=14;fontFamily=Consolas;rounded=1;arcSize=0;" parent="1" vertex="1">
          <mxGeometry x="3858.74" y="509.5" width="160" height="70" as="geometry" />
        </mxCell>
        <mxCell id="QS-16CUmfVsmQrZvx4Mh-40" value="2" style="ellipse;whiteSpace=wrap;html=1;fontSize=14;fontFamily=Consolas;rounded=1;arcSize=0;" parent="1" vertex="1">
          <mxGeometry x="3918.7400000000002" y="847.75" width="40" height="35" as="geometry" />
        </mxCell>
        <mxCell id="QS-16CUmfVsmQrZvx4Mh-44" style="edgeStyle=orthogonalEdgeStyle;rounded=0;orthogonalLoop=1;jettySize=auto;html=1;" parent="1" source="QS-16CUmfVsmQrZvx4Mh-43" edge="1">
          <mxGeometry relative="1" as="geometry">
            <mxPoint x="4267.15" y="135.5" as="targetPoint" />
          </mxGeometry>
        </mxCell>
        <mxCell id="QS-16CUmfVsmQrZvx4Mh-43" value="2" style="ellipse;whiteSpace=wrap;html=1;fontSize=14;fontFamily=Consolas;rounded=1;arcSize=0;" parent="1" vertex="1">
          <mxGeometry x="4247.16" y="80" width="40" height="35" as="geometry" />
        </mxCell>
        <mxCell id="QS-16CUmfVsmQrZvx4Mh-49" style="edgeStyle=orthogonalEdgeStyle;rounded=0;orthogonalLoop=1;jettySize=auto;html=1;" parent="1" source="QS-16CUmfVsmQrZvx4Mh-46" target="QS-16CUmfVsmQrZvx4Mh-48" edge="1">
          <mxGeometry relative="1" as="geometry" />
        </mxCell>
        <mxCell id="QS-16CUmfVsmQrZvx4Mh-46" value="&lt;div style=&quot;font-family: Consolas, &amp;quot;Courier New&amp;quot;, monospace; line-height: 19px; white-space: pre;&quot;&gt;&lt;div style=&quot;&quot;&gt;&lt;div style=&quot;line-height: 19px;&quot;&gt;Обнуляем счетчик &lt;/div&gt;&lt;div style=&quot;line-height: 19px;&quot;&gt;ошибок&lt;/div&gt;&lt;/div&gt;&lt;/div&gt;" style="whiteSpace=wrap;html=1;fontSize=14;fontFamily=Consolas;rounded=1;arcSize=0;" parent="1" vertex="1">
          <mxGeometry x="4187.17" y="132.5" width="160" height="70" as="geometry" />
        </mxCell>
        <mxCell id="QS-16CUmfVsmQrZvx4Mh-55" style="edgeStyle=orthogonalEdgeStyle;rounded=0;orthogonalLoop=1;jettySize=auto;html=1;" parent="1" source="QS-16CUmfVsmQrZvx4Mh-48" target="QS-16CUmfVsmQrZvx4Mh-54" edge="1">
          <mxGeometry relative="1" as="geometry" />
        </mxCell>
        <mxCell id="QS-16CUmfVsmQrZvx4Mh-48" value="&lt;div style=&quot;font-family: Consolas, &amp;quot;Courier New&amp;quot;, monospace; white-space: pre;&quot;&gt;&lt;div style=&quot;line-height: 19px;&quot;&gt;&lt;span&gt;&lt;font style=&quot;color: rgb(0, 0, 0);&quot;&gt;p.minutes = &lt;/font&gt;&lt;/span&gt;&lt;/div&gt;&lt;div style=&quot;line-height: 19px;&quot;&gt;&lt;span&gt;&lt;font style=&quot;color: rgb(0, 0, 0);&quot;&gt;check_and_convert_time&lt;/font&gt;&lt;/span&gt;&lt;/div&gt;&lt;div style=&quot;line-height: 19px;&quot;&gt;&lt;span&gt;&lt;font style=&quot;color: rgb(0, 0, 0);&quot;&gt;(p.time, line_num, &lt;/font&gt;&lt;/span&gt;&lt;/div&gt;&lt;div style=&quot;line-height: 19px;&quot;&gt;&lt;span&gt;&lt;font style=&quot;color: rgb(0, 0, 0);&quot;&gt;errors, error_count);&lt;/font&gt;&lt;/span&gt;&lt;/div&gt;&lt;/div&gt;" style="shape=process;whiteSpace=wrap;html=1;backgroundOutline=1;fontSize=14;fontFamily=Consolas;rounded=1;arcSize=0;" parent="1" vertex="1">
          <mxGeometry x="4162.8" y="235" width="208.73" height="75" as="geometry" />
        </mxCell>
        <mxCell id="QS-16CUmfVsmQrZvx4Mh-64" style="edgeStyle=orthogonalEdgeStyle;rounded=0;orthogonalLoop=1;jettySize=auto;html=1;" parent="1" source="QS-16CUmfVsmQrZvx4Mh-51" target="QS-16CUmfVsmQrZvx4Mh-63" edge="1">
          <mxGeometry relative="1" as="geometry" />
        </mxCell>
        <mxCell id="QS-16CUmfVsmQrZvx4Mh-51" value="&lt;div style=&quot;font-family: Consolas, &amp;quot;Courier New&amp;quot;, monospace; white-space: pre;&quot;&gt;&lt;div style=&quot;line-height: 19px;&quot;&gt;&lt;div style=&quot;font-family: Consolas; white-space: normal;&quot;&gt;&lt;font face=&quot;Consolas, Courier New, monospace&quot;&gt;&lt;span style=&quot;white-space: pre;&quot;&gt;check_model_valid&lt;/span&gt;&lt;/font&gt;&lt;/div&gt;&lt;div style=&quot;font-family: Consolas; white-space: normal;&quot;&gt;&lt;font face=&quot;Consolas, Courier New, monospace&quot;&gt;&lt;span style=&quot;white-space: pre;&quot;&gt;(p.model, line_num, &lt;/span&gt;&lt;/font&gt;&lt;/div&gt;&lt;div style=&quot;font-family: Consolas; white-space: normal;&quot;&gt;&lt;font face=&quot;Consolas, Courier New, monospace&quot;&gt;&lt;span style=&quot;white-space: pre;&quot;&gt;errors, error_count);&lt;br&gt;check_bort_valid&lt;/span&gt;&lt;/font&gt;&lt;/div&gt;&lt;div style=&quot;font-family: Consolas; white-space: normal;&quot;&gt;&lt;font face=&quot;Consolas, Courier New, monospace&quot;&gt;&lt;span style=&quot;white-space: pre;&quot;&gt;(p.bort, line_num, &lt;/span&gt;&lt;/font&gt;&lt;/div&gt;&lt;div style=&quot;font-family: Consolas; white-space: normal;&quot;&gt;&lt;font face=&quot;Consolas, Courier New, monospace&quot;&gt;&lt;span style=&quot;white-space: pre;&quot;&gt;errors, error_count);&lt;br&gt;check_airport_valid&lt;/span&gt;&lt;/font&gt;&lt;/div&gt;&lt;div style=&quot;font-family: Consolas; white-space: normal;&quot;&gt;&lt;font face=&quot;Consolas, Courier New, monospace&quot;&gt;&lt;span style=&quot;white-space: pre;&quot;&gt;(p.airport, line_num, &lt;/span&gt;&lt;/font&gt;&lt;/div&gt;&lt;div style=&quot;font-family: Consolas; white-space: normal;&quot;&gt;&lt;font face=&quot;Consolas, Courier New, monospace&quot;&gt;&lt;span style=&quot;white-space: pre;&quot;&gt;errors, error_count);&lt;/span&gt;&lt;/font&gt;&lt;/div&gt;&lt;/div&gt;&lt;/div&gt;" style="shape=process;whiteSpace=wrap;html=1;backgroundOutline=1;fontSize=14;fontFamily=Consolas;rounded=1;arcSize=0;" parent="1" vertex="1">
          <mxGeometry x="4150" y="500" width="234.36" height="170" as="geometry" />
        </mxCell>
        <mxCell id="QS-16CUmfVsmQrZvx4Mh-59" style="edgeStyle=orthogonalEdgeStyle;rounded=0;orthogonalLoop=1;jettySize=auto;html=1;" parent="1" source="QS-16CUmfVsmQrZvx4Mh-54" target="QS-16CUmfVsmQrZvx4Mh-58" edge="1">
          <mxGeometry relative="1" as="geometry" />
        </mxCell>
        <mxCell id="QS-16CUmfVsmQrZvx4Mh-65" style="edgeStyle=orthogonalEdgeStyle;rounded=0;orthogonalLoop=1;jettySize=auto;html=1;" parent="1" source="QS-16CUmfVsmQrZvx4Mh-54" edge="1">
          <mxGeometry relative="1" as="geometry">
            <mxPoint x="4267.18" y="480" as="targetPoint" />
            <Array as="points">
              <mxPoint x="4367.17" y="370" />
              <mxPoint x="4367.17" y="480" />
            </Array>
          </mxGeometry>
        </mxCell>
        <mxCell id="QS-16CUmfVsmQrZvx4Mh-54" value="&lt;div style=&quot;font-family: Consolas, &amp;quot;Courier New&amp;quot;, monospace; font-size: 14px; line-height: 19px; white-space: pre;&quot;&gt;&lt;span&gt;&lt;font style=&quot;color: rgb(0, 0, 0);&quot;&gt;Время корректно?&lt;/font&gt;&lt;/span&gt;&lt;/div&gt;" style="rhombus;whiteSpace=wrap;html=1;" parent="1" vertex="1">
          <mxGeometry x="4212.93" y="335" width="108.5" height="70" as="geometry" />
        </mxCell>
        <mxCell id="QS-16CUmfVsmQrZvx4Mh-60" style="edgeStyle=orthogonalEdgeStyle;rounded=0;orthogonalLoop=1;jettySize=auto;html=1;" parent="1" source="QS-16CUmfVsmQrZvx4Mh-58" target="QS-16CUmfVsmQrZvx4Mh-51" edge="1">
          <mxGeometry relative="1" as="geometry" />
        </mxCell>
        <mxCell id="QS-16CUmfVsmQrZvx4Mh-58" value="&lt;div style=&quot;font-family: Consolas, &amp;quot;Courier New&amp;quot;, monospace; line-height: 19px; white-space: pre;&quot;&gt;&lt;div style=&quot;&quot;&gt;&lt;div style=&quot;line-height: 19px;&quot;&gt;&lt;span&gt;&lt;font style=&quot;color: rgb(0, 0, 0);&quot;&gt;Устанавливаем &lt;/font&gt;&lt;/span&gt;&lt;/div&gt;&lt;div style=&quot;line-height: 19px;&quot;&gt;&lt;span&gt;&lt;font style=&quot;color: rgb(0, 0, 0);&quot;&gt;флаг, что строка &lt;/font&gt;&lt;/span&gt;&lt;/div&gt;&lt;div style=&quot;line-height: 19px;&quot;&gt;&lt;span&gt;&lt;font style=&quot;color: rgb(0, 0, 0);&quot;&gt;неверна&lt;/font&gt;&lt;/span&gt;&lt;/div&gt;&lt;/div&gt;&lt;/div&gt;" style="whiteSpace=wrap;html=1;fontSize=14;fontFamily=Consolas;rounded=1;arcSize=0;" parent="1" vertex="1">
          <mxGeometry x="4194.3" y="425" width="145.75" height="50" as="geometry" />
        </mxCell>
        <mxCell id="QS-16CUmfVsmQrZvx4Mh-63" value="3" style="ellipse;whiteSpace=wrap;html=1;fontSize=14;fontFamily=Consolas;rounded=1;arcSize=0;" parent="1" vertex="1">
          <mxGeometry x="4247.18" y="700" width="40" height="35" as="geometry" />
        </mxCell>
        <mxCell id="QS-16CUmfVsmQrZvx4Mh-68" value="Нет" style="text;html=1;align=center;verticalAlign=middle;resizable=0;points=[];autosize=1;strokeColor=none;fillColor=none;" parent="1" vertex="1">
          <mxGeometry x="4327.179999999999" y="335" width="40" height="30" as="geometry" />
        </mxCell>
        <mxCell id="QS-16CUmfVsmQrZvx4Mh-69" value="Да" style="text;html=1;align=center;verticalAlign=middle;resizable=0;points=[];autosize=1;strokeColor=none;fillColor=none;" parent="1" vertex="1">
          <mxGeometry x="4287.179999999999" y="394.25" width="40" height="30" as="geometry" />
        </mxCell>
      </root>
    </mxGraphModel>
  </diagram>
</mxfile>
